<svg width="256" height="256" viewBox="0 0 256 256" xmlns="http://www.w3.org/2000/svg">
  <defs>
    <linearGradient id="bg" x1="0" y1="0" x2="1" y2="1">
      <stop offset="0%" stop-color="#1B1030"/>
      <stop offset="100%" stop-color="#2A1750"/>
    </linearGradient>
    <linearGradient id="spark" x1="0" y1="0" x2="1" y2="1">
      <stop offset="0%" stop-color="#FFC93C"/>
      <stop offset="100%" stop-color="#FF6B35"/>
    </linearGradient>
    <linearGradient id="cursorGrad" x1="0" y1="0" x2="0" y2="1">
      <stop offset="0%" stop-color="#F5F3FF"/>
      <stop offset="100%" stop-color="#C9C1F5"/>
    </linearGradient>
  </defs>

  <rect x="0" y="0" width="256" height="256" rx="52" fill="url(#bg)"/>

  <circle cx="128" cy="128" r="92" fill="none" stroke="#4B2E83" stroke-width="2" opacity="0.5"/>

  <g transform="translate(72,64) rotate(-12)">
    <path d="M0 0 L0 118 L28 92 L47 132 L64 124 L46 84 L80 82 Z"
          fill="url(#cursorGrad)" stroke="#1B1030" stroke-width="4" stroke-linejoin="round"/>
  </g>

  <g transform="translate(168,70)">
    <path d="M10 0 L-6 26 L6 26 L-10 58 L22 22 L8 22 Z" fill="url(#spark)"/>
  </g>

  <g transform="translate(150,150)">
    <path d="M8 0 L-4 20 L5 20 L-8 44 L16 17 L6 17 Z" fill="url(#spark)" opacity="0.9"/>
  </g>
</svg>
